<svg width="874" height="503" viewBox="0 0 874 503" fill="none" xmlns="http://www.w3.org/2000/svg">
<path fill-rule="evenodd" clip-rule="evenodd" d="M99.6588 149.851C99.1948 150.542 98.9767 151.157 99.0027 151.656C99.0536 152.579 99.9278 153.129 101.624 153.129L338.967 153.783C340.299 153.783 342.233 152.88 343.75 151.688C344.474 151.119 345.101 150.485 345.524 149.851L356.668 132.805C357.369 131.748 357.506 130.699 357.084 129.943C356.892 129.603 356.584 129.328 356.162 129.136C356.015 129.072 355.851 129.014 355.675 128.976C355.391 128.906 355.064 128.867 354.702 128.867H120.637C119.77 128.867 118.832 129.008 117.919 129.271C117.635 129.354 117.35 129.45 117.071 129.552C116.735 129.68 116.405 129.821 116.088 129.981C114.968 130.538 114.004 131.275 113.425 132.146L99.6588 149.851ZM0.6564 210.177C-0.656161 212.143 0.000116587 213.455 2.62204 213.455L312.742 212.796C315.364 212.796 317.986 211.49 318.642 208.864L323.886 193.124C324.542 191.159 323.229 189.193 320.608 189.193H21.635C19.0131 189.193 15.7349 190.506 14.4255 192.472L0.6564 210.177ZM161.289 273.782C159.877 273.782 159.035 273.212 158.762 272.379C158.528 271.662 158.715 270.753 159.32 269.844L168.501 253.451C169.811 251.485 172.432 249.519 175.057 249.519H306.185C308.807 249.519 310.117 251.485 310.117 254.11L308.807 269.844C308.807 272.469 306.185 274.434 304.216 274.434L161.289 273.782Z" fill="black"/>
<path d="M780.693 157.299L780.687 157.3C765.323 161.381 749.737 165.52 731.693 170.175L730.619 170.464C721.799 172.835 712.874 175.561 704.674 166.097C694.841 154.956 693.02 147.544 681.869 138.703C645.429 109.811 600.568 124.276 563.196 148.538C518.612 177.392 495.665 220.013 496.321 273.122C496.974 325.578 533.034 368.859 584.833 376.069C629.414 381.972 666.787 366.233 696.292 332.795C699.165 329.279 701.884 325.61 704.674 321.71C706.009 319.844 707.359 317.926 708.751 315.948L708.752 315.946L708.753 315.945L709.009 315.58L709.015 315.568C710.604 313.307 712.254 310.966 713.992 308.533H587.452C573.688 308.533 570.41 300.01 575 288.862C583.521 268.531 599.256 234.439 608.436 217.387C609.161 215.933 610.246 214.122 611.824 212.412C614.515 209.498 618.629 206.898 624.824 206.898H835.821C870.636 205.318 876.517 214.4 872 241.5C858.91 303.081 843.122 334.884 805.779 388.529C758.579 450.82 696.945 489.503 618.922 500.002C554.675 508.523 495.008 496.059 442.557 456.717C394.041 420 366.502 371.478 359.29 311.152C350.768 239.684 371.749 175.426 415.019 119.032C461.57 58.0524 523.2 19.3636 598.597 5.59653C660.231 -5.55204 719.241 1.66453 772.343 37.7282C807.091 60.6782 843.52 117.097 843.52 117.097C843.52 117.097 853.02 132.097 849.464 137.358C845.908 142.618 835.362 143.137 831.52 144.097C808.548 149.93 799.955 152.185 780.693 157.299Z" fill="black"/>
</svg>
